<svg xmlns="http://www.w3.org/2000/svg" xmlns:xlink="http://www.w3.org/1999/xlink" width="500" zoomAndPan="magnify" viewBox="0 0 375 374.999991" height="500" preserveAspectRatio="xMidYMid meet" version="1.0"><defs><g/><clipPath id="id1"><path d="M 65.652344 167.34375 L 309.402344 167.34375 L 309.402344 207.84375 L 65.652344 207.84375 Z M 65.652344 167.34375 " clip-rule="nonzero"/></clipPath></defs><g fill="#000000" fill-opacity="1"><g transform="translate(82.545731, 253.874983)"><g><path d="M 125.972656 -131.246094 C 125.972656 -133.199219 124.996094 -135.152344 122.847656 -135.152344 L 103.023438 -135.152344 C 101.070312 -135.152344 99.996094 -133.296875 99.996094 -131.246094 L 99.996094 -33.203125 C 99.996094 -27.050781 96.382812 -21.386719 89.546875 -21.386719 C 82.710938 -21.386719 79.097656 -27.050781 79.097656 -33.203125 L 79.097656 -131.34375 C 79.097656 -133.394531 78.511719 -135.152344 76.171875 -135.152344 L 55.664062 -135.152344 C 54.199219 -135.152344 53.027344 -133.394531 53.027344 -131.34375 L 53.027344 -33.203125 C 53.027344 -27.050781 49.316406 -21.386719 42.480469 -21.386719 C 36.035156 -21.386719 32.226562 -27.050781 32.226562 -33.203125 L 32.226562 -131.34375 C 32.226562 -133.394531 31.542969 -135.152344 29.296875 -135.152344 L 8.691406 -135.152344 C 7.226562 -135.152344 6.152344 -133.394531 6.152344 -131.34375 L 6.152344 -31.738281 C 6.152344 -12.988281 19.238281 2.148438 42.578125 2.148438 C 53.710938 2.148438 61.914062 -2.832031 66.894531 -10.644531 C 71.582031 -2.832031 79.585938 2.148438 90.816406 2.148438 C 113.082031 2.148438 125.972656 -12.988281 125.972656 -31.738281 Z M 125.972656 -131.246094 "/></g></g></g><g fill="#000000" fill-opacity="1"><g transform="translate(224.671337, 253.874983)"><g><path d="M 65.136719 -111.421875 C 66.796875 -111.421875 67.96875 -112.59375 67.96875 -114.9375 L 67.96875 -131.636719 C 67.96875 -133.980469 66.796875 -135.152344 65.136719 -135.152344 L 2.734375 -135.152344 C 1.074219 -135.152344 -0.0976562 -133.882812 -0.0976562 -131.539062 L -0.0976562 -114.9375 C -0.0976562 -112.59375 1.074219 -111.421875 2.734375 -111.421875 L 20.898438 -111.421875 L 20.898438 -3.417969 C 20.898438 -1.171875 22.070312 0 23.730469 0 L 44.140625 0 C 45.703125 0 46.972656 -1.171875 46.972656 -3.417969 L 46.972656 -111.421875 Z M 65.136719 -111.421875 "/></g></g></g><g clip-path="url(#id1)"><path fill="#ffffff" d="M 65.65625 167.34375 L 309.398438 167.34375 L 309.398438 207.84375 L 65.65625 207.84375 L 65.65625 167.34375 " fill-opacity="1" fill-rule="nonzero"/></g><g fill="#000000" fill-opacity="1"><g transform="translate(117.874414, 193.874987)"><g><path d="M 11.332031 -11.808594 C 11.332031 -11.984375 11.246094 -12.160156 11.050781 -12.160156 L 9.269531 -12.160156 C 9.09375 -12.160156 8.996094 -11.992188 8.996094 -11.808594 L 8.996094 -2.988281 C 8.996094 -2.433594 8.671875 -1.925781 8.054688 -1.925781 C 7.441406 -1.925781 7.117188 -2.433594 7.117188 -2.988281 L 7.117188 -11.816406 C 7.117188 -12 7.0625 -12.160156 6.851562 -12.160156 L 5.007812 -12.160156 C 4.875 -12.160156 4.769531 -12 4.769531 -11.816406 L 4.769531 -2.988281 C 4.769531 -2.433594 4.4375 -1.925781 3.820312 -1.925781 C 3.242188 -1.925781 2.898438 -2.433594 2.898438 -2.988281 L 2.898438 -11.816406 C 2.898438 -12 2.835938 -12.160156 2.636719 -12.160156 L 0.78125 -12.160156 C 0.648438 -12.160156 0.554688 -12 0.554688 -11.816406 L 0.554688 -2.855469 C 0.554688 -1.167969 1.730469 0.191406 3.832031 0.191406 C 4.832031 0.191406 5.570312 -0.253906 6.019531 -0.957031 C 6.441406 -0.253906 7.160156 0.191406 8.171875 0.191406 C 10.171875 0.191406 11.332031 -1.167969 11.332031 -2.855469 Z M 11.332031 -11.808594 "/></g></g></g><g fill="#000000" fill-opacity="1"><g transform="translate(139.02824, 193.874987)"><g><path d="M 2.96875 -2.117188 L 2.96875 -5.09375 L 5.535156 -5.09375 C 5.703125 -5.09375 5.816406 -5.183594 5.816406 -5.394531 L 5.816406 -6.898438 C 5.816406 -7.117188 5.683594 -7.203125 5.535156 -7.203125 L 2.96875 -7.203125 L 2.96875 -10.023438 L 6.183594 -10.023438 C 6.34375 -10.023438 6.429688 -10.128906 6.429688 -10.339844 L 6.429688 -11.832031 C 6.429688 -12.054688 6.34375 -12.160156 6.183594 -12.160156 L 0.929688 -12.160156 C 0.746094 -12.160156 0.632812 -12.027344 0.632812 -11.816406 L 0.632812 -0.332031 C 0.632812 -0.121094 0.730469 0 0.929688 0 L 6.230469 0 C 6.371094 0 6.484375 -0.0976562 6.484375 -0.308594 L 6.484375 -1.820312 C 6.484375 -2.019531 6.371094 -2.117188 6.230469 -2.117188 Z M 2.96875 -2.117188 "/></g></g></g><g fill="#000000" fill-opacity="1"><g transform="translate(154.982328, 193.874987)"><g><path d="M 4.417969 -8.636719 C 4.417969 -8.390625 4.453125 -8.300781 4.675781 -8.300781 L 6.246094 -8.300781 C 6.527344 -8.300781 6.589844 -8.390625 6.589844 -8.636719 L 6.589844 -9.136719 C 6.589844 -11.078125 5.289062 -12.34375 3.46875 -12.34375 C 2.242188 -12.34375 0.351562 -11.472656 0.351562 -9.191406 C 0.351562 -7.175781 1.175781 -6.597656 3.011719 -5.105469 C 4.09375 -4.226562 4.550781 -3.832031 4.550781 -2.976562 C 4.550781 -2.335938 4.101562 -1.933594 3.550781 -1.933594 C 3.101562 -1.933594 2.546875 -2.214844 2.546875 -3.09375 L 2.546875 -3.488281 C 2.546875 -3.75 2.496094 -3.847656 2.25 -3.847656 L 0.648438 -3.847656 C 0.402344 -3.847656 0.351562 -3.726562 0.351562 -3.425781 L 0.351562 -2.960938 C 0.351562 -1.308594 1.414062 0.191406 3.53125 0.191406 C 5.472656 0.191406 6.773438 -1.210938 6.773438 -2.855469 C 6.773438 -5.078125 5.464844 -6.035156 3.820312 -7.308594 C 3.039062 -7.914062 2.519531 -8.292969 2.519531 -9.128906 C 2.519531 -9.925781 3.03125 -10.234375 3.46875 -10.234375 C 4.101562 -10.234375 4.417969 -9.734375 4.417969 -9.128906 Z M 4.417969 -8.636719 "/></g></g></g><g fill="#000000" fill-opacity="1"><g transform="translate(171.278963, 193.874987)"><g><path d="M 4.417969 -8.636719 C 4.417969 -8.390625 4.453125 -8.300781 4.675781 -8.300781 L 6.246094 -8.300781 C 6.527344 -8.300781 6.589844 -8.390625 6.589844 -8.636719 L 6.589844 -9.136719 C 6.589844 -11.078125 5.289062 -12.34375 3.46875 -12.34375 C 2.242188 -12.34375 0.351562 -11.472656 0.351562 -9.191406 C 0.351562 -7.175781 1.175781 -6.597656 3.011719 -5.105469 C 4.09375 -4.226562 4.550781 -3.832031 4.550781 -2.976562 C 4.550781 -2.335938 4.101562 -1.933594 3.550781 -1.933594 C 3.101562 -1.933594 2.546875 -2.214844 2.546875 -3.09375 L 2.546875 -3.488281 C 2.546875 -3.75 2.496094 -3.847656 2.25 -3.847656 L 0.648438 -3.847656 C 0.402344 -3.847656 0.351562 -3.726562 0.351562 -3.425781 L 0.351562 -2.960938 C 0.351562 -1.308594 1.414062 0.191406 3.53125 0.191406 C 5.472656 0.191406 6.773438 -1.210938 6.773438 -2.855469 C 6.773438 -5.078125 5.464844 -6.035156 3.820312 -7.308594 C 3.039062 -7.914062 2.519531 -8.292969 2.519531 -9.128906 C 2.519531 -9.925781 3.03125 -10.234375 3.46875 -10.234375 C 4.101562 -10.234375 4.417969 -9.734375 4.417969 -9.128906 Z M 4.417969 -8.636719 "/></g></g></g><g fill="#000000" fill-opacity="1"><g transform="translate(187.575595, 193.874987)"><g><path d="M 5.859375 -10.023438 C 6.007812 -10.023438 6.113281 -10.128906 6.113281 -10.339844 L 6.113281 -11.84375 C 6.113281 -12.054688 6.007812 -12.160156 5.859375 -12.160156 L 0.246094 -12.160156 C 0.0976562 -12.160156 -0.0078125 -12.042969 -0.0078125 -11.832031 L -0.0078125 -10.339844 C -0.0078125 -10.128906 0.0976562 -10.023438 0.246094 -10.023438 L 1.878906 -10.023438 L 1.878906 -0.308594 C 1.878906 -0.105469 1.984375 0 2.136719 0 L 3.972656 0 C 4.113281 0 4.226562 -0.105469 4.226562 -0.308594 L 4.226562 -10.023438 Z M 5.859375 -10.023438 "/></g></g></g><g fill="#000000" fill-opacity="1"><g transform="translate(202.941193, 193.874987)"><g><path d="M 5.859375 -10.023438 C 6.007812 -10.023438 6.113281 -10.128906 6.113281 -10.339844 L 6.113281 -11.84375 C 6.113281 -12.054688 6.007812 -12.160156 5.859375 -12.160156 L 0.246094 -12.160156 C 0.0976562 -12.160156 -0.0078125 -12.042969 -0.0078125 -11.832031 L -0.0078125 -10.339844 C -0.0078125 -10.128906 0.0976562 -10.023438 0.246094 -10.023438 L 1.878906 -10.023438 L 1.878906 -0.308594 C 1.878906 -0.105469 1.984375 0 2.136719 0 L 3.972656 0 C 4.113281 0 4.226562 -0.105469 4.226562 -0.308594 L 4.226562 -10.023438 Z M 5.859375 -10.023438 "/></g></g></g><g fill="#000000" fill-opacity="1"><g transform="translate(218.306797, 193.874987)"><g><path d="M 2.96875 -2.117188 L 2.96875 -5.09375 L 5.535156 -5.09375 C 5.703125 -5.09375 5.816406 -5.183594 5.816406 -5.394531 L 5.816406 -6.898438 C 5.816406 -7.117188 5.683594 -7.203125 5.535156 -7.203125 L 2.96875 -7.203125 L 2.96875 -10.023438 L 6.183594 -10.023438 C 6.34375 -10.023438 6.429688 -10.128906 6.429688 -10.339844 L 6.429688 -11.832031 C 6.429688 -12.054688 6.34375 -12.160156 6.183594 -12.160156 L 0.929688 -12.160156 C 0.746094 -12.160156 0.632812 -12.027344 0.632812 -11.816406 L 0.632812 -0.332031 C 0.632812 -0.121094 0.730469 0 0.929688 0 L 6.230469 0 C 6.371094 0 6.484375 -0.0976562 6.484375 -0.308594 L 6.484375 -1.820312 C 6.484375 -2.019531 6.371094 -2.117188 6.230469 -2.117188 Z M 2.96875 -2.117188 "/></g></g></g><g fill="#000000" fill-opacity="1"><g transform="translate(234.26089, 193.874987)"><g><path d="M 6.828125 -9.25 C 6.828125 -10.796875 5.851562 -12.34375 3.714844 -12.34375 C 1.800781 -12.34375 0.4375 -11.035156 0.4375 -9.296875 L 0.4375 -2.855469 C 0.4375 -0.949219 1.949219 0.191406 3.714844 0.191406 C 5.472656 0.191406 6.878906 -0.949219 6.878906 -2.855469 L 6.878906 -4.050781 C 6.878906 -4.3125 6.792969 -4.375 6.589844 -4.375 L 4.945312 -4.375 C 4.742188 -4.375 4.683594 -4.296875 4.683594 -4.03125 L 4.683594 -2.988281 C 4.683594 -2.433594 4.375 -1.925781 3.734375 -1.925781 C 3.128906 -1.925781 2.777344 -2.433594 2.777344 -2.988281 L 2.777344 -9.199219 C 2.777344 -9.75 3.164062 -10.234375 3.734375 -10.234375 C 4.3125 -10.234375 4.640625 -9.699219 4.640625 -9.179688 L 4.640625 -8.363281 C 4.640625 -8.117188 4.699219 -8.011719 4.910156 -8.011719 L 6.546875 -8.011719 C 6.773438 -8.011719 6.828125 -8.125 6.828125 -8.398438 Z M 6.828125 -9.25 "/></g></g></g><g fill="#000000" fill-opacity="1"><g transform="translate(250.741982, 193.874987)"><g><path d="M 5.199219 -12.160156 C 5 -12.160156 4.902344 -12 4.902344 -11.816406 L 4.902344 -7.28125 L 2.96875 -7.28125 L 2.96875 -11.816406 C 2.96875 -12.027344 2.882812 -12.160156 2.679688 -12.160156 L 0.921875 -12.160156 C 0.730469 -12.160156 0.632812 -12.027344 0.632812 -11.816406 L 0.632812 -0.332031 C 0.632812 -0.121094 0.71875 0 0.921875 0 L 2.679688 0 C 2.882812 0 2.96875 -0.121094 2.96875 -0.332031 L 2.96875 -5.164062 L 4.902344 -5.164062 L 4.902344 -0.332031 C 4.902344 -0.121094 5.007812 0 5.199219 0 L 6.921875 0 C 7.152344 0 7.238281 -0.121094 7.238281 -0.332031 L 7.238281 -11.824219 C 7.238281 -12.078125 7.097656 -12.160156 6.949219 -12.160156 Z M 5.199219 -12.160156 "/></g></g></g><path stroke-linecap="butt" transform="matrix(1.500563, 0, 0, 1.5, 93.783896, 168.092773)" fill="none" stroke-linejoin="miter" d="M 0.000839891 0.000651359 L 124.953974 0.000651359 " stroke="#000000" stroke-width="1" stroke-opacity="1" stroke-miterlimit="4"/><path stroke-linecap="butt" transform="matrix(1.500563, 0, 0, 1.5, 93.783896, 206.907217)" fill="none" stroke-linejoin="miter" d="M 0.000839891 -0.000644542 L 124.953974 -0.000644542 " stroke="#000000" stroke-width="1" stroke-opacity="1" stroke-miterlimit="4"/></svg>